<?xml version="1.0" standalone="no"?>
<!DOCTYPE svg PUBLIC "-//W3C//DTD SVG 20010904//EN"
 "http://www.w3.org/TR/2001/REC-SVG-20010904/DTD/svg10.dtd">
<svg version="1.0" xmlns="http://www.w3.org/2000/svg"
 width="612.000000pt" height="612.000000pt" viewBox="0 0 612.000000 612.000000"
 preserveAspectRatio="xMidYMid meet">

<g transform="translate(0.000000,612.000000) scale(0.100000,-0.100000)"
fill="#000000" stroke="none">
<path d="M2970 5536 c-114 -31 -202 -102 -251 -202 -103 -208 10 -466 233
-532 l58 -17 0 -457 0 -458 -30 0 c-36 0 -43 -13 -60 -122 -7 -41 -15 -80 -19
-86 -6 -10 -130 -62 -148 -62 -5 0 -45 25 -88 55 -44 30 -84 55 -89 55 -5 0
-20 -10 -33 -22 l-24 -22 -322 322 -323 323 36 71 c33 67 35 78 35 167 0 85
-3 103 -29 158 -35 76 -113 153 -193 191 -50 23 -71 27 -153 27 -87 0 -101 -3
-161 -32 -80 -39 -150 -111 -187 -191 -23 -49 -27 -70 -27 -152 0 -87 3 -101
32 -161 41 -84 101 -143 183 -183 59 -28 74 -31 161 -31 89 0 100 2 167 35
l71 36 323 -323 322 -322 -22 -24 c-12 -13 -22 -27 -22 -31 0 -4 27 -46 60
-93 l59 -85 -18 -37 c-10 -20 -24 -53 -30 -73 -13 -39 -9 -38 -131 -58 -99
-17 -100 -17 -100 -56 l0 -34 -458 0 -459 0 -16 58 c-77 276 -449 365 -640
152 -216 -240 -69 -616 249 -638 178 -12 345 103 391 270 l16 58 459 0 458 0
0 -30 c0 -37 13 -44 114 -60 44 -6 85 -14 92 -17 7 -3 20 -26 29 -51 9 -26 22
-58 29 -72 13 -23 10 -30 -45 -109 -32 -46 -59 -89 -59 -95 0 -5 10 -20 22
-33 l22 -24 -322 -322 -323 -323 -71 36 c-67 33 -78 35 -167 35 -83 0 -104 -4
-154 -27 -80 -38 -158 -115 -193 -191 -26 -54 -29 -73 -29 -157 0 -82 4 -103
27 -153 38 -80 115 -158 191 -193 55 -26 73 -29 157 -29 87 0 101 3 161 32 80
39 150 111 187 191 23 49 27 70 27 153 0 89 -2 100 -35 167 l-36 71 323 323
322 322 24 -22 c13 -12 27 -22 31 -22 4 0 46 27 93 60 l85 59 37 -18 c20 -10
53 -24 73 -30 39 -13 38 -9 58 -131 17 -99 17 -100 56 -100 l34 0 0 -459 0
-459 -50 -12 c-168 -40 -289 -211 -277 -390 11 -171 124 -305 290 -346 128
-32 256 5 355 103 170 168 141 454 -58 583 -33 21 -83 43 -110 50 l-50 12 0
459 0 459 30 0 c37 0 44 13 60 114 6 44 14 85 17 92 3 7 26 20 51 29 26 9 58
22 72 30 23 12 30 10 103 -41 99 -70 103 -71 133 -43 l25 23 322 -322 323
-323 -36 -71 c-33 -67 -35 -78 -35 -167 0 -84 3 -103 28 -156 37 -79 114 -156
191 -192 53 -24 73 -28 156 -28 87 0 101 3 161 32 80 40 150 111 187 191 23
49 27 70 27 152 0 83 -4 103 -27 153 -38 80 -115 158 -191 193 -55 26 -73 29
-158 29 -89 0 -100 -2 -167 -35 l-71 -36 -323 323 -322 322 22 24 c12 13 22
26 22 30 0 4 -27 46 -60 93 l-59 86 18 37 c10 20 24 53 30 74 7 20 14 37 16
37 5 0 168 30 193 35 18 4 22 12 22 40 l0 35 458 0 458 0 13 -50 c18 -69 81
-162 138 -205 71 -52 167 -79 259 -72 96 7 169 41 237 109 153 154 153 382 0
536 -201 202 -551 113 -631 -160 l-17 -58 -457 0 -458 0 0 30 c0 37 -13 44
-114 60 -44 6 -85 14 -92 17 -7 3 -20 26 -29 51 -9 26 -22 58 -30 72 -12 23
-10 30 41 103 70 99 71 103 43 133 l-23 25 322 322 323 323 71 -36 c67 -33 78
-35 167 -35 83 0 104 4 153 27 80 37 152 107 191 187 29 60 32 74 32 161 0 84
-3 102 -29 157 -35 76 -113 153 -193 191 -50 23 -71 27 -153 27 -84 0 -103 -3
-157 -29 -76 -35 -153 -113 -191 -193 -23 -50 -27 -71 -27 -154 0 -89 2 -100
35 -167 l36 -71 -323 -323 -322 -322 -24 22 c-13 12 -26 22 -30 22 -4 0 -46
-27 -93 -60 l-86 -59 -37 18 c-20 10 -53 24 -73 30 -39 13 -38 9 -58 131 -17
99 -17 100 -56 100 l-34 0 0 459 0 459 47 11 c177 45 293 208 281 397 -15 231
-248 401 -468 340z m211 -108 c68 -29 134 -104 155 -176 41 -140 -18 -276
-148 -341 -50 -25 -74 -31 -127 -31 -248 0 -382 290 -220 474 89 101 215 129
340 74z m-1508 -608 c193 -72 248 -327 101 -474 -170 -170 -462 -68 -491 172
-25 212 188 377 390 302z m2998 -7 c54 -24 112 -83 142 -143 17 -35 22 -62 22
-120 0 -91 -23 -147 -85 -207 -112 -110 -290 -109 -403 3 -189 186 -45 508
219 491 33 -3 80 -13 105 -24z m-1494 -1455 c172 -64 252 -272 169 -442 -95
-194 -357 -236 -512 -82 -243 244 19 646 343 524z m-2125 -28 c117 -44 188
-146 188 -271 0 -112 -58 -206 -164 -262 -63 -33 -183 -31 -251 5 -103 54
-160 146 -159 258 2 203 198 341 386 270z m4205 5 c68 -20 143 -88 174 -157
84 -191 -58 -408 -267 -408 -109 0 -234 87 -268 186 -80 234 125 449 361 379z
m-3581 -1496 c189 -71 244 -324 101 -469 -60 -62 -116 -85 -207 -85 -87 0
-142 22 -202 80 -59 58 -83 117 -83 205 0 91 24 150 85 209 80 77 198 100 306
60z m2999 -6 c22 -12 61 -44 87 -71 132 -141 87 -366 -91 -454 -36 -18 -63
-23 -121 -23 -92 0 -149 24 -208 86 -145 150 -90 391 107 471 61 24 169 20
226 -9z m-1487 -624 c217 -108 214 -408 -5 -515 -179 -88 -392 34 -410 234
-12 131 68 255 192 300 17 6 60 11 96 11 54 1 76 -4 127 -30z"/>
</g>
</svg>
